<?xml version="1.0" encoding="iso-8859-1"?>
<!-- Generator: Adobe Illustrator 19.0.0, SVG Export Plug-In . SVG Version: 6.00 Build 0)  -->
<svg version="1.1" id="Capa_1" xmlns="http://www.w3.org/2000/svg" xmlns:xlink="http://www.w3.org/1999/xlink" x="0px" y="0px"
	 viewBox="0 0 512.001 512.001" style="enable-background:new 0 0 512.001 512.001;" xml:space="preserve">
<path style="fill:#4C4846;" d="M142.305,194.61c-0.697,15.372-3.701,39.528-14.821,58.224c-21.455,36.073,11.023,52.498,0.996,85.96
	l254.979-0.663c-9.403-33.001,22.495-49.464,1.182-85.297c-11.213-18.853-14.173-43.258-14.838-58.609l3.74-33.047
	c-0.145-41.448,1.61-55.523-5.008-77.379c-35.901-119.07-205.107-106.983-228.51,11.017c-3.208,16.148-2.231,23.231-2.295,66.363
	L142.305,194.61"/>
<path style="fill:#3D3938;" d="M152.558,338.731c9.968-33.419-22.455-49.847-1.014-85.898c11.12-18.696,14.123-42.853,14.821-58.224
	l-4.575-33.431c0.114-41.144-4.28-70.923,18.312-106.4c18.979-29.941,51.084-50.471,87.564-54.166
	c-36.376-3.684-72.369,9.303-98.309,36.938c-38.522,41.13-30.896,82.13-31.629,123.627l4.575,33.431
	c-0.697,15.372-3.701,39.529-14.821,58.224c-21.455,36.073,11.023,52.499,0.996,85.96L152.558,338.731z"/>
<path style="fill:#6C7D87;" d="M438.033,484.741c-24.399-122.545-22.738-116.822-25.991-123.788
	c-6.048-12.877-17.21-20.651-30.866-24.205c-2.332-0.815,15.33,5.358-74.993-26.21c-4.427-1.518-7.4-5.68-7.4-10.36v-23.519
	c-27.977,14.918-60.485,13.978-85.587,1.469v22.05l-24.508,16.213l-13.721,4.718h-0.029c0.002,0.003,0.003,0.006,0.003,0.006
	l-0.003,0.005l-44.107,15.629c-2.036,0.601-6.059,1.788-5.802,1.712c-11.274,4.205-20.854,12.4-25.778,24.103
	c-3.191,7.63-2.138,7.57-18.52,88.252c-6.349,32.878-7.74,35.247-6.948,42.568C75.989,513.89,97.083,511.751,97.654,512
	c11.418,0,302.702,0,316.701,0C432.629,512,440.368,501.264,438.033,484.741z"/>
<path style="fill:#566A75;" d="M100.192,484.741c23.315-127.451,22.364-127.934,27.494-136.999
	c3.528-6.23,8.332-11.097,14.304-14.948l-11.159,3.954c-2.036,0.601-6.059,1.788-5.802,1.712
	c-14.713,5.487-25.234,16.882-28.539,33.194c-24.29,121.997-23.004,113.79-22.878,119.119c0.536,23.137,23.421,21.018,24.04,21.226
	c3.289,0,22.955,0,26.216,0C105.523,512,97.868,501.189,100.192,484.741z"/>
<path style="fill:#EA4E4E;" d="M393.348,341.302c-6.133-3.161-12.275-4.585-12.172-4.554c-2.332-0.815,15.33,5.358-74.993-26.21
	c-4.427-1.518-7.4-5.68-7.4-10.36v-23.519c-27.807,14.827-60.288,14.076-85.587,1.469v22.051l-24.508,16.213l-13.721,4.718h-0.029
	c0.002,0.003,0.003,0.006,0.003,0.006l-0.003,0.005l-44.107,15.629c-2.036,0.601-6.059,1.788-5.802,1.712
	c-2.434,0.908-5.229,2.25-6.516,2.992l0,0c20.485,35.455,26.039,79.773,26.039,79.773c0,8.628,0,81.13,0,90.774
	c243.378,0-15.63,0,219.944,0c0-9.643,0-82.145,0-90.774C364.497,421.226,372.862,376.757,393.348,341.302L393.348,341.302z"/>
<path style="fill:#D83D3D;" d="M170.606,434.578c0-30.913-16.03-78.73-28.652-101.771l-11.122,3.941
	c-2.036,0.601-6.059,1.788-5.802,1.712c-2.434,0.908-5.229,2.25-6.516,2.992c20.485,35.455,26.039,79.773,26.039,79.773
	c0,8.628,0,81.13,0,90.774h26.053C170.606,504.246,170.606,441.972,170.606,434.578z"/>
<path style="fill:#EDEDED;" d="M253.888,360.492c-0.844-0.073-13.948,0.4-30.706-4.623c-8.64-2.456-12.332-10.722-9.986-17.884
	c2.311-7.06,9.887-11.352,17.555-8.887c8.134,2.761,19.428,3.819,24.256,3.573c8.432-0.132,13.475-0.791,23.266-3.566l0.001,0.001
	c1.13-0.372,1.049-0.323,2.749-0.914c7.25-2.526,15.182,1.316,17.705,8.574c2.522,7.257-1.317,15.184-8.574,17.705
	c-11.408,3.966-23.317,6.02-35.066,6.02C255.089,360.492,253.784,360.492,253.888,360.492z"/>
<g>
	<path style="fill:#DADADA;" d="M293.283,329.76c-2.893-1.921-6.466-2.743-10.032-2.129
		C286.209,328.393,289.284,329.089,293.283,329.76z"/>
	<path style="fill:#DADADA;" d="M254.357,332.673c-9.064-0.084-17.268-1.548-22.643-3.288c-9.076-2.905-16.255,1.688-18.517,8.6
		c-2.389,7.293,1.62,15.156,8.909,17.556c2.939,0.848,8.082,2.571,16.711,3.827c8.965,1.304,15.726,1.099,16.243,1.124
		C248.021,352.723,247.543,340.973,254.357,332.673z"/>
</g>
<path style="fill:#EDEDED;" d="M225.461,356.532L210.918,512h90.127l-14.542-156.318
	C252.706,365.739,226.347,356.621,225.461,356.532z"/>
<path style="fill:#DADADA;" d="M254.526,360.496c-0.907-0.046-15.375,0.101-28.262-3.738l-0.802-0.226L210.918,512h43.607
	L254.526,360.496L254.526,360.496z"/>
<path style="fill:#EAB883;" d="M226.374,314.063c0,8.46,0,5.867,0,14.332c6.779-0.005,22.013,9.179,51.899,0.708l0.001,0.001
	c2.321-0.672,4.049-1.667,7.28-1.675l0.005-0.01v-13.356c0-7.364,7.276-9.014,13.2-13.885l0.023-0.006v-26.605
	c-28.131,14.999-60.705,13.868-85.587,1.469v25.142l-0.012,0.008C219.1,305.05,226.374,306.7,226.374,314.063z"/>
<path style="fill:#DDA97A;" d="M238.936,283.28c-9.391-1.567-18.291-4.533-25.739-8.245v25.142l-0.012,0.008
	c5.914,4.864,13.189,6.515,13.189,13.878c0,8.46,0,5.867,0,14.332c3.651-0.003,5.016,1.29,12.562,2.776V283.28z"/>
<path style="fill:#F7CF9C;" d="M349.734,150.877c0-9.295-8.101-16.459-17.338-15.424c-26.627,2.983-52.926-2.808-68.669-24.227
	c-1.913-2.601-3.425-6.061-8.172-6.163c-7.335,0.159-5.943,7.469-19.684,17.893c-13.342,10.129-30.229,13.593-47.114,13.187
	c-5.579-0.138-10.147-0.701-10.044-0.69c-9.237-1.035-17.338,6.13-17.338,15.424v4.914h-0.015c0,35.765-1.192,46.079,3.401,62.772
	c28.486,103.207,184.989,86.411,184.989-25.07c0-6.339,0-27.777,0-37.702h-0.015L349.734,150.877L349.734,150.877z"/>
<path style="fill:#DDA97A;" d="M190.521,218.563c-4.29-15.593-3.533-48.993-3.415-82.476c-4.799-0.192-8.486-0.646-8.393-0.635
	c-9.237-1.035-17.338,6.13-17.338,15.424v4.914h-0.015c0,35.765-1.192,46.079,3.401,62.772
	c14.293,51.786,60.817,73.351,103.63,67.908C234.071,282.103,201.965,260.025,190.521,218.563z"/>
<g>
	<path style="fill:#EAB883;" d="M161.36,155.791c-15.509-5.527-32.346,4.752-32.346,19.747c0,14.991,16.834,25.274,32.346,19.747
		V155.791z"/>
	<path style="fill:#EAB883;" d="M349.75,155.791c15.509-5.527,32.346,4.752,32.346,19.747c0,14.991-16.834,25.274-32.346,19.747
		V155.791z"/>
</g>
<g>
	<path style="fill:#DDA97A;" d="M131.53,166.002c-9.683,17.294,9.595,36.494,29.831,29.284v-19.073
		C149.843,180.316,136.989,175.753,131.53,166.002z"/>
	<path style="fill:#DDA97A;" d="M349.75,176.212v19.073c20.203,7.199,39.524-11.969,29.831-29.284
		C374.11,175.774,361.241,180.307,349.75,176.212z"/>
</g>
<g>
</g>
<g>
</g>
<g>
</g>
<g>
</g>
<g>
</g>
<g>
</g>
<g>
</g>
<g>
</g>
<g>
</g>
<g>
</g>
<g>
</g>
<g>
</g>
<g>
</g>
<g>
</g>
<g>
</g>
</svg>
